<svg width="66" height="91" viewBox="0 0 66 91" fill="none" xmlns="http://www.w3.org/2000/svg">
<circle opacity="0.5" cx="2.0625" cy="2.0625" r="2.0625" fill="#297EFF"/>
<circle opacity="0.5" cx="2.0625" cy="14.4375" r="2.0625" fill="#297EFF"/>
<circle opacity="0.5" cx="2.0625" cy="26.8125" r="2.0625" fill="#297EFF"/>
<circle opacity="0.5" cx="2.0625" cy="39.1875" r="2.0625" fill="#297EFF"/>
<circle opacity="0.5" cx="2.0625" cy="51.5625" r="2.0625" fill="#297EFF"/>
<circle opacity="0.5" cx="2.0625" cy="63.9375" r="2.0625" fill="#297EFF"/>
<circle opacity="0.5" cx="2.0625" cy="76.3125" r="2.0625" fill="#297EFF"/>
<circle opacity="0.5" cx="2.0625" cy="88.6875" r="2.0625" fill="#297EFF"/>
<circle opacity="0.5" cx="14.4375" cy="2.0625" r="2.0625" fill="#297EFF"/>
<circle opacity="0.5" cx="14.4375" cy="14.4375" r="2.0625" fill="#297EFF"/>
<circle opacity="0.5" cx="14.4375" cy="26.8125" r="2.0625" fill="#297EFF"/>
<circle opacity="0.5" cx="14.4375" cy="39.1875" r="2.0625" fill="#297EFF"/>
<circle opacity="0.5" cx="14.4375" cy="51.5625" r="2.0625" fill="#297EFF"/>
<circle opacity="0.5" cx="14.4375" cy="63.9375" r="2.0625" fill="#297EFF"/>
<circle opacity="0.5" cx="14.4375" cy="76.3125" r="2.0625" fill="#297EFF"/>
<circle opacity="0.5" cx="14.4375" cy="88.6875" r="2.0625" fill="#297EFF"/>
<circle opacity="0.5" cx="26.8125" cy="2.0625" r="2.0625" fill="#297EFF"/>
<circle opacity="0.5" cx="26.8125" cy="14.4375" r="2.0625" fill="#297EFF"/>
<circle opacity="0.5" cx="26.8125" cy="26.8125" r="2.0625" fill="#297EFF"/>
<circle opacity="0.5" cx="26.8125" cy="39.1875" r="2.0625" fill="#297EFF"/>
<circle opacity="0.5" cx="26.8125" cy="51.5625" r="2.0625" fill="#297EFF"/>
<circle opacity="0.5" cx="26.8125" cy="63.9375" r="2.0625" fill="#297EFF"/>
<circle opacity="0.5" cx="26.8125" cy="76.3125" r="2.0625" fill="#297EFF"/>
<circle opacity="0.5" cx="26.8125" cy="88.6875" r="2.0625" fill="#297EFF"/>
<circle opacity="0.5" cx="39.1875" cy="2.0625" r="2.0625" fill="#297EFF"/>
<circle opacity="0.5" cx="39.1875" cy="14.4375" r="2.0625" fill="#297EFF"/>
<circle opacity="0.5" cx="39.1875" cy="26.8125" r="2.0625" fill="#297EFF"/>
<circle opacity="0.5" cx="39.1875" cy="39.1875" r="2.0625" fill="#297EFF"/>
<circle opacity="0.5" cx="39.1875" cy="51.5625" r="2.0625" fill="#297EFF"/>
<circle opacity="0.5" cx="39.1875" cy="63.9375" r="2.0625" fill="#297EFF"/>
<circle opacity="0.5" cx="39.1875" cy="76.3125" r="2.0625" fill="#297EFF"/>
<circle opacity="0.5" cx="39.1875" cy="88.6875" r="2.0625" fill="#297EFF"/>
<circle opacity="0.5" cx="51.5625" cy="2.0625" r="2.0625" fill="#297EFF"/>
<circle opacity="0.5" cx="51.5625" cy="14.4375" r="2.0625" fill="#297EFF"/>
<circle opacity="0.5" cx="51.5625" cy="26.8125" r="2.0625" fill="#297EFF"/>
<circle opacity="0.5" cx="51.5625" cy="39.1875" r="2.0625" fill="#297EFF"/>
<circle opacity="0.5" cx="51.5625" cy="51.5625" r="2.0625" fill="#297EFF"/>
<circle opacity="0.5" cx="51.5625" cy="63.9375" r="2.0625" fill="#297EFF"/>
<circle opacity="0.5" cx="51.5625" cy="76.3125" r="2.0625" fill="#297EFF"/>
<circle opacity="0.5" cx="51.5625" cy="88.6875" r="2.0625" fill="#297EFF"/>
<circle opacity="0.5" cx="63.9375" cy="2.0625" r="2.0625" fill="#297EFF"/>
<circle opacity="0.5" cx="63.9375" cy="14.4375" r="2.0625" fill="#297EFF"/>
<circle opacity="0.5" cx="63.9375" cy="26.8125" r="2.0625" fill="#297EFF"/>
<circle opacity="0.5" cx="63.9375" cy="39.1875" r="2.0625" fill="#297EFF"/>
<circle opacity="0.5" cx="63.9375" cy="51.5625" r="2.0625" fill="#297EFF"/>
<circle opacity="0.5" cx="63.9375" cy="63.9375" r="2.0625" fill="#297EFF"/>
<circle opacity="0.5" cx="63.9375" cy="76.3125" r="2.0625" fill="#297EFF"/>
<circle opacity="0.5" cx="63.9375" cy="88.6875" r="2.0625" fill="#297EFF"/>
</svg>
