<svg width="67" height="55" viewBox="0 0 67 55" fill="none" xmlns="http://www.w3.org/2000/svg">
<path d="M28 27.0002V54.8002H0V36.4002C0 29.4669 1.2 23.1335 3.6 17.4002C6 11.6669 10.0667 5.93353 15.8 0.200195L26.2 8.2002C23 11.8002 20.4667 15.0669 18.6 18.0002C16.8667 20.9335 15.7333 23.9335 15.2 27.0002H28ZM66.6 27.0002V54.8002H38.6V36.4002C38.6 29.4669 39.8 23.1335 42.2 17.4002C44.6 11.6669 48.6667 5.93353 54.4 0.200195L64.8 8.2002C61.6 11.8002 59.0667 15.0669 57.2 18.0002C55.4667 20.9335 54.3333 23.9335 53.8 27.0002H66.6Z" fill="#E1E1E1"/>
</svg>
